<?xml version="1.0" encoding="utf-8"?>
<!-- Generator: Adobe Illustrator 15.1.0, SVG Export Plug-In . SVG Version: 6.00 Build 0)  -->
<!DOCTYPE svg PUBLIC "-//W3C//DTD SVG 1.1//EN" "http://www.w3.org/Graphics/SVG/1.1/DTD/svg11.dtd">
<svg version="1.1" id="Layer_1" xmlns="http://www.w3.org/2000/svg" xmlns:xlink="http://www.w3.org/1999/xlink" x="0px" y="0px"
	 width="339.667px" height="111.938px" viewBox="0 0 339.667 111.938" enable-background="new 0 0 339.667 111.938"
	 xml:space="preserve">
<rect x="-0.001" y="0" fill="none" width="339.669" height="111.937"/>
<path fill="#333333" d="M42.893,104.496h-1.476c-0.121-0.004-0.329-0.051-0.348-0.346c-0.363-5.166-4.679-9.211-9.832-9.211
	c-5.146,0-9.47,4.045-9.831,9.207c-0.021,0.295-0.224,0.346-0.346,0.35h-1.478c-0.673,0-0.724-0.863-0.724-1.121V90.289
	c0-0.66,0.56-1.221,1.227-1.221h22.299c0.664,0,1.23,0.561,1.23,1.221v13.086C43.617,103.633,43.564,104.496,42.893,104.496
	L42.893,104.496z M36.764,104.824c0-3.033-2.479-5.498-5.523-5.498c-3.046,0-5.529,2.465-5.529,5.498
	c0,3.025,2.479,5.494,5.529,5.494C34.286,110.318,36.764,107.849,36.764,104.824z M58.71,95.849v-5.803c0-1-0.816-1.812-1.819-1.812
	h-3.517c-0.994,0-1.802,0.812-1.802,1.812v3.031c0,1.354-1.104,2.453-2.465,2.453h-1.841v2.133h9.625
	C57.895,97.666,58.71,96.849,58.71,95.849z M14.766,109.539V83.465c0-0.27-0.086-0.357-0.346-0.357
	c-1.043,0-1.891,0.895-1.891,1.994c0,0.184,0.032,0.367,0.108,0.629l1.411,7.574l-0.281,0.086c-0.173,0.049-0.299,0.098-0.382,0.137
	c-1.119,0.635-1.815,1.811-1.815,3.072c0,1.271,0.675,2.424,1.812,3.07c0.09,0.051,0.271,0.104,0.394,0.143l0.274,0.09l-1.422,7.607
	c-0.068,0.223-0.099,0.406-0.099,0.594c0,1.1,0.848,1.992,1.891,1.992C14.615,110.095,14.766,110.095,14.766,109.539L14.766,109.539
	z M41.269,27.143l9.982,5.991l8.997-5.397C59.133,15.614,50.873,1.561,31.179,1.561c-18.477,0-27.939,13.526-28.957,26.172l9,5.401
	l9.987-5.991l10.031,5.993L41.269,27.143z M60.643,33.621c-0.333,3.358-1.192,6.6-2.566,9.647c-0.684,1.528-1.499,3.036-2.427,4.49
	L34.315,85.318h-6.149L6.827,47.759c-0.963-1.508-1.775-3.016-2.429-4.49c-1.364-3.08-2.227-6.326-2.559-9.647l9.383,5.633
	l9.987-5.981l10.031,5.981l10.032-5.981l9.98,5.981L60.643,33.621L60.643,33.621z M46.46,58.351
	c-5.52,4.488-11.074,7.207-13.703,8.357c-0.724,0.326-1.227,0.527-1.458,0.604l-0.063,0.025l-0.062-0.025
	c-0.231-0.076-0.726-0.277-1.451-0.604c-2.638-1.15-8.201-3.875-13.713-8.369l13.648,24.025h3.154L46.46,58.351z M334.436,67.756
	L319.99,51.664v13.269l3.545,1.098v1.363h-8.385v-1.402l2.801-0.748V49.189l-2.92-1.185v-1.359h5.334l13.064,14.667V49.189
	l-3.584-1.225v-1.319h8.383v1.363l-2.757,0.827v15.215l0.119,3.295L334.436,67.756L334.436,67.756z M253.054,56.883
	c0-3.164-1.032-5.878-2.999-7.842c-1.945-1.957-4.615-2.985-7.712-2.985c-6.229,0-10.743,4.769-10.743,11.339
	c0,3.146,1.032,5.838,2.999,7.791c1.951,1.938,4.626,2.959,7.744,2.959C248.55,68.144,253.054,63.41,253.054,56.883z
	 M247.028,50.729c1.328,1.909,2.062,4.516,2.062,7.337c0,6.156-3.062,8.352-5.922,8.352c-2.477,0-4.519-1.227-5.907-3.553
	c-1.123-1.887-1.772-4.439-1.772-7.003c0-5.052,2.346-8.196,6.106-8.196C243.729,47.661,245.66,48.75,247.028,50.729z
	 M294.53,56.883c0-3.164-1.036-5.878-3.003-7.842c-1.941-1.957-4.615-2.984-7.712-2.984c-6.226,0-10.739,4.769-10.739,11.338
	c0,3.148,1.032,5.84,3.004,7.793c1.947,1.936,4.625,2.959,7.735,2.959C290.03,68.144,294.53,63.41,294.53,56.883z M288.505,50.729
	c1.328,1.909,2.059,4.516,2.059,7.337c0,6.156-3.057,8.352-5.919,8.352c-2.476,0-4.521-1.227-5.907-3.553
	c-1.121-1.887-1.771-4.439-1.771-7.003c0-5.052,2.343-8.196,6.109-8.196C285.201,47.661,287.132,48.75,288.505,50.729
	L288.505,50.729z M210.655,60.08h-1.28l-3.076,5.51h-7.068V48.799l3.393-0.79v-1.363h-9.77v1.363l2.797,0.827v16.406l-2.797,0.748
	v1.402h16.492L210.655,60.08z M172.47,60.08h-1.285l-3.076,5.51h-7.068V48.799l3.389-0.79v-1.363h-9.766v1.363l2.795,0.827v16.406
	l-2.795,0.75v1.4h16.49L172.47,60.08z M132.836,60.115c0-2.193-0.917-3.921-2.719-5.13c-1.524-1.02-3.65-1.629-6.144-1.759v-0.015
	c2.854-0.263,7.598-1.417,7.598-6.174c0-3.917-3.54-5.987-10.245-5.987l-0.383,0.004l-9.134,0.117v1.324l3.349,1.025v21.606
	l-3.349,0.902v1.363l9.682,0.156l0.403,0.002C128.641,67.556,132.836,64.707,132.836,60.115z M122.984,54.357
	c3.608,0.615,5.759,2.885,5.759,6.069c0,3.701-2.834,5.639-5.635,5.639c-1.949,0-3.506-0.717-4.06-1.854v-9.854H122.984z
	 M119.417,42.46c5.532,0,8.224,1.639,8.224,5.011c0,4.562-4.894,5.155-8.594,5.198V42.464L119.417,42.46z"/>
</svg>
